<svg width="94" height="70" viewBox="0 0 94 70" fill="none" xmlns="http://www.w3.org/2000/svg">
<path d="M7.14 23.6699L2.5 23.7499C2.23387 23.7526 1.97953 23.8601 1.79228 24.0493C1.60502 24.2384 1.49999 24.4938 1.5 24.7599V45.4999C1.5 45.6988 1.57902 45.8896 1.71967 46.0303C1.86032 46.1709 2.05109 46.2499 2.25 46.2499H11.75C12.0833 46.2499 12.25 46.0833 12.25 45.7499V24.2599C12.25 23.9399 12.09 23.7766 11.77 23.7699L9.52 23.6899" stroke="#9D96A6" stroke-width="2"/>
<path d="M9.51959 23.6899C9.38959 12.4599 8.81958 4.01992 22.8096 4.00992C38.8763 3.99658 54.9496 3.99325 71.0296 3.99991C74.7429 4.00658 77.4829 4.47659 79.2496 5.40992C86.3696 9.16992 84.4396 17.4799 84.8996 23.6799" stroke="#9D96A6" stroke-width="2"/>
<path d="M84.9 23.6802L82.24 23.7602C81.9133 23.7668 81.75 23.9335 81.75 24.2602V45.7502C81.75 46.0835 81.9167 46.2502 82.25 46.2502H91.75C91.9489 46.2502 92.1397 46.1712 92.2803 46.0305C92.421 45.8899 92.5 45.6991 92.5 45.5002V24.4702C92.5001 24.3198 92.4417 24.1752 92.3372 24.067C92.2328 23.9587 92.0903 23.8954 91.94 23.8902L87.19 23.7502" stroke="#9D96A6" stroke-width="2"/>
<path d="M87.1896 23.75C87.2096 15.23 88.5596 6.47 79.4496 2.6C77.3629 1.70666 73.6696 1.26 68.3696 1.26C52.663 1.24667 36.9563 1.24667 21.2496 1.26C14.9763 1.26667 10.6496 3.83333 8.26961 8.96C6.32961 13.15 6.90961 18.88 7.13961 23.67" stroke="#9D96A6" stroke-width="2"/>
<path d="M87.1904 23.7499C86.6371 23.5966 85.8737 23.5732 84.9004 23.6799" stroke="#9D96A6" stroke-width="2"/>
<path d="M9.51965 23.6899L7.13965 23.6699" stroke="#9D96A6" stroke-width="2"/>
<path d="M78.2502 14.87C78.2502 13.711 77.7898 12.5995 76.9703 11.7799C76.1508 10.9604 75.0392 10.5 73.8802 10.5H20.3602C19.2012 10.5 18.0897 10.9604 17.2702 11.7799C16.4506 12.5995 15.9902 13.711 15.9902 14.87V54.37C15.9902 55.529 16.4506 56.6405 17.2702 57.4601C18.0897 58.2796 19.2012 58.74 20.3602 58.74H73.8802C75.0392 58.74 76.1508 58.2796 76.9703 57.4601C77.7898 56.6405 78.2502 55.529 78.2502 54.37V14.87Z" stroke="#9D96A6" stroke-width="2"/>
<path d="M3.17996 66.11C4.51996 67.87 6.29662 68.75 8.50996 68.75H85.49C87.6766 68.75 89.4366 67.8833 90.77 66.15L91.99 64.56C93.2966 62.8533 92.8766 62 90.73 62H3.26996C1.11663 62 0.693292 62.8567 1.99996 64.57L3.17996 66.11Z" stroke="#9D96A6" stroke-width="2"/>
<path d="M72.51 16.61C72.51 16.5145 72.4721 16.423 72.4046 16.3554C72.337 16.2879 72.2455 16.25 72.15 16.25H21.61C21.5145 16.25 21.423 16.2879 21.3554 16.3554C21.2879 16.423 21.25 16.5145 21.25 16.61V52.63C21.25 52.7255 21.2879 52.817 21.3554 52.8846C21.423 52.9521 21.5145 52.99 21.61 52.99H72.15C72.2455 52.99 72.337 52.9521 72.4046 52.8846C72.4721 52.817 72.51 52.7255 72.51 52.63V16.61Z" stroke="#D7C5F1" stroke-width="2"/>
<path d="M35.9665 28.1056C35.9672 27.7209 35.8921 27.3397 35.7454 26.984C35.5988 26.6282 35.3835 26.3049 35.1119 26.0323C34.8403 25.7598 34.5177 25.5434 34.1625 25.3955C33.8073 25.2476 33.4264 25.1712 33.0416 25.1705L32.7016 25.1699C32.3168 25.1693 31.9357 25.2444 31.58 25.391C31.2242 25.5376 30.9008 25.7529 30.6283 26.0245C30.3557 26.2961 30.1394 26.6187 29.9915 26.974C29.8436 27.3292 29.7672 27.71 29.7665 28.0948L29.7539 35.2948C29.7532 35.6796 29.8284 36.0607 29.975 36.4165C30.1216 36.7722 30.3369 37.0956 30.6085 37.3681C30.8801 37.6407 31.2027 37.8571 31.5579 38.0049C31.9132 38.1528 32.294 38.2293 32.6788 38.2299L33.0188 38.2305C33.4036 38.2312 33.7847 38.1561 34.1405 38.0094C34.4962 37.8628 34.8196 37.6476 35.0921 37.376C35.3647 37.1044 35.5811 36.7817 35.7289 36.4265C35.8768 36.0713 35.9532 35.6904 35.9539 35.3056L35.9665 28.1056Z" stroke="#755C97" stroke-width="2"/>
<path d="M64.4632 28.0846C64.4625 27.6998 64.3861 27.3189 64.2382 26.9637C64.0904 26.6085 63.874 26.2858 63.6014 26.0142C63.3289 25.7426 63.0055 25.5274 62.6498 25.3808C62.294 25.2341 61.9129 25.159 61.5281 25.1597L61.2081 25.1603C60.8233 25.1609 60.4425 25.2374 60.0872 25.3853C59.732 25.5331 59.4094 25.7495 59.1378 26.0221C58.8662 26.2946 58.6509 26.618 58.5043 26.9737C58.3577 27.3295 58.2825 27.7106 58.2832 28.0954L58.2958 35.2954C58.2965 35.6802 58.3729 36.061 58.5208 36.4162C58.6687 36.7715 58.885 37.0941 59.1576 37.3657C59.4301 37.6373 59.7535 37.8526 60.1093 37.9992C60.465 38.1458 60.8461 38.2209 61.2309 38.2203L61.5509 38.2197C61.9357 38.219 62.3166 38.1426 62.6718 37.9947C63.027 37.8468 63.3496 37.6304 63.6212 37.3579C63.8928 37.0853 64.1081 36.762 64.2547 36.4062C64.4014 36.0505 64.4765 35.6693 64.4758 35.2846L64.4632 28.0846Z" stroke="#755C97" stroke-width="2"/>
<path d="M51.8502 41.3101C48.9702 45.0401 42.5202 43.5501 41.8002 38.5601C41.7135 37.9467 41.3635 37.6634 40.7502 37.7101L40.2502 37.7501C39.7569 37.7901 39.5569 38.0568 39.6502 38.5501C41.4602 47.6401 53.5202 47.7701 55.0202 38.8201C55.1135 38.2601 54.8869 37.8901 54.3402 37.7101L54.0802 37.6301C53.9949 37.6021 53.9048 37.5913 53.8153 37.5983C53.7257 37.6052 53.6385 37.6299 53.5585 37.6708C53.4785 37.7117 53.4075 37.7681 53.3494 37.8366C53.2913 37.9051 53.2474 37.9845 53.2202 38.0701C52.6669 39.7501 52.2102 40.8301 51.8502 41.3101Z" stroke="#755C97" stroke-width="2"/>
<path d="M87.1896 23.75C86.2812 23.75 86.2188 24.75 84.8996 24.68C84.4396 18.48 86.3696 9.17 79.2496 5.41C77.4829 4.47667 74.7429 4.00666 71.0296 4C54.9496 3.99333 38.8763 3.99667 22.8096 4.01C8.81961 4.02 9.38961 12.46 9.51961 23.69L7.13961 23.67C6.90961 18.88 6.32961 13.15 8.26961 8.96C10.6496 3.83333 14.9763 1.26667 21.2496 1.26C36.9563 1.24667 52.663 1.24667 68.3696 1.26C73.6696 1.26 77.3629 1.70666 79.4496 2.6C88.5596 6.47 87.2096 15.23 87.1896 23.75Z" fill="black"/>
<path d="M78 54.6517C78 55.805 77.5415 56.911 76.7254 57.7264C75.9093 58.5419 74.8024 59 73.6482 59H20.3518C19.1976 59 18.0907 58.5419 17.2746 57.7264C16.4585 56.911 16 55.805 16 54.6517V15.3483C16 14.195 16.4585 13.089 17.2746 12.2736C18.0907 11.4581 19.1976 11 20.3518 11H73.6482C74.8024 11 75.9093 11.4581 76.7254 12.2736C77.5415 13.089 78 14.195 78 15.3483V54.6517ZM72.284 17.0796C72.284 16.9846 72.2462 16.8935 72.179 16.8263C72.1117 16.7591 72.0206 16.7214 71.9255 16.7214H21.5965C21.5015 16.7214 21.4103 16.7591 21.343 16.8263C21.2758 16.8935 21.238 16.9846 21.238 17.0796V52.9204C21.238 53.0154 21.2758 53.1065 21.343 53.1737C21.4103 53.2409 21.5015 53.2786 21.5965 53.2786H71.9255C72.0206 53.2786 72.1117 53.2409 72.179 53.1737C72.2462 53.1065 72.284 53.0154 72.284 52.9204V17.0796Z" fill="white"/>
<path d="M72.51 52.63C72.51 52.7255 72.4721 52.817 72.4046 52.8846C72.337 52.9521 72.2455 52.99 72.15 52.99H21.61C21.5145 52.99 21.423 52.9521 21.3554 52.8846C21.2879 52.817 21.25 52.7255 21.25 52.63V16.61C21.25 16.5145 21.2879 16.423 21.3554 16.3554C21.423 16.2879 21.5145 16.25 21.61 16.25H72.15C72.2455 16.25 72.337 16.2879 72.4046 16.3554C72.4721 16.423 72.51 16.5145 72.51 16.61V52.63ZM35.9663 28.1054C35.967 27.7206 35.8918 27.3395 35.7452 26.9837C35.5986 26.628 35.3833 26.3046 35.1117 26.0321C34.8401 25.7595 34.5175 25.5432 34.1623 25.3953C33.807 25.2474 33.4262 25.171 33.0414 25.1703L32.7014 25.1697C32.3166 25.169 31.9355 25.2442 31.5798 25.3908C31.224 25.5374 30.9006 25.7527 30.6281 26.0243C30.3555 26.2959 30.1392 26.6185 29.9913 26.9737C29.8434 27.329 29.767 27.7098 29.7663 28.0946L29.7537 35.2946C29.753 35.6794 29.8281 36.0605 29.9748 36.4163C30.1214 36.772 30.3367 37.0954 30.6083 37.3679C30.8799 37.6405 31.2025 37.8569 31.5577 38.0047C31.913 38.1526 32.2938 38.229 32.6786 38.2297L33.0186 38.2303C33.4034 38.231 33.7845 38.1558 34.1403 38.0092C34.496 37.8626 34.8194 37.6473 35.0919 37.3757C35.3645 37.1041 35.5808 36.7815 35.7287 36.4263C35.8766 36.071 35.953 35.6902 35.9537 35.3054L35.9663 28.1054ZM64.4637 28.0846C64.463 27.6998 64.3866 27.319 64.2387 26.9637C64.0909 26.6085 63.8745 26.2859 63.6019 26.0143C63.3294 25.7427 63.006 25.5274 62.6503 25.3808C62.2945 25.2342 61.9134 25.159 61.5286 25.1597L61.2086 25.1603C60.8238 25.161 60.443 25.2374 60.0877 25.3853C59.7325 25.5331 59.4099 25.7495 59.1383 26.0221C58.8667 26.2946 58.6514 26.618 58.5048 26.9737C58.3582 27.3295 58.283 27.7106 58.2837 28.0954L58.2963 35.2954C58.297 35.6802 58.3734 36.061 58.5213 36.4163C58.6692 36.7715 58.8855 37.0941 59.1581 37.3657C59.4306 37.6373 59.754 37.8526 60.1097 37.9992C60.4655 38.1458 60.8466 38.221 61.2314 38.2203L61.5514 38.2197C61.9362 38.219 62.317 38.1426 62.6723 37.9947C63.0275 37.8468 63.3501 37.6305 63.6217 37.3579C63.8933 37.0854 64.1086 36.762 64.2552 36.4062C64.4018 36.0505 64.477 35.6694 64.4763 35.2846L64.4637 28.0846ZM51.85 41.31C48.97 45.04 42.52 43.55 41.8 38.56C41.7133 37.9467 41.3633 37.6633 40.75 37.71L40.25 37.75C39.7567 37.79 39.5567 38.0567 39.65 38.55C41.46 47.64 53.52 47.77 55.02 38.82C55.1133 38.26 54.8867 37.89 54.34 37.71L54.08 37.63C53.9947 37.602 53.9046 37.5912 53.8151 37.5982C53.7255 37.6052 53.6382 37.6298 53.5583 37.6707C53.4783 37.7117 53.4073 37.768 53.3492 37.8365C53.2911 37.9051 53.2472 37.9844 53.22 38.07C52.6667 39.75 52.21 40.83 51.85 41.31Z" fill="black"/>
<path d="M7.14 23.6699L9.52 23.6899L11.77 23.7699C12.09 23.7766 12.25 23.9399 12.25 24.2599V45.7499C12.25 46.0833 12.0833 46.2499 11.75 46.2499H2.25C2.05109 46.2499 1.86032 46.1709 1.71967 46.0303C1.57902 45.8896 1.5 45.6988 1.5 45.4999V24.7599C1.49999 24.4938 1.60502 24.2384 1.79228 24.0493C1.97953 23.8601 2.23387 23.7526 2.5 23.7499L7.14 23.6699Z" fill="white"/>
<path d="M84.8438 23.7502L87.19 23.75L91.94 23.89C92.0903 23.8952 92.2328 23.9586 92.3372 24.0668C92.4417 24.175 92.5001 24.3196 92.5 24.47V45.5C92.5 45.6989 92.421 45.8897 92.2803 46.0303C92.1397 46.171 91.9489 46.25 91.75 46.25H82.25C81.9167 46.25 81.75 46.0833 81.75 45.75V24.26C81.75 23.9333 81.9133 23.7667 82.24 23.76L84.8438 23.7502Z" fill="white"/>
<path d="M33.0415 25.1703L32.7015 25.1697C31.0833 25.1668 29.7692 26.4764 29.7664 28.0945L29.7538 35.2945C29.751 36.9127 31.0605 38.2268 32.6787 38.2296L33.0187 38.2302C34.6369 38.2331 35.951 36.9235 35.9538 35.3054L35.9664 28.1054C35.9692 26.4872 34.6597 25.1731 33.0415 25.1703Z" fill="white"/>
<path d="M61.5283 25.1599L61.2083 25.1604C59.5901 25.1632 58.2806 26.4773 58.2834 28.0955L58.296 35.2955C58.2988 36.9137 59.6129 38.2232 61.2311 38.2204L61.5511 38.2198C63.1693 38.217 64.4788 36.9029 64.476 35.2847L64.4634 28.0847C64.4606 26.4665 63.1465 25.157 61.5283 25.1599Z" fill="white"/>
<path d="M41.8002 38.5601C42.5202 43.5501 48.9702 45.0401 51.8502 41.3101C52.2102 40.8301 52.6669 39.7501 53.2202 38.0701C53.2474 37.9845 53.2913 37.9051 53.3494 37.8366C53.4075 37.7681 53.4785 37.7117 53.5585 37.6708C53.6385 37.6299 53.7257 37.6052 53.8153 37.5983C53.9048 37.5913 53.9949 37.6021 54.0802 37.6301L54.3402 37.7101C54.8869 37.8901 55.1135 38.2601 55.0202 38.8201C53.5202 47.7701 41.4602 47.6401 39.6502 38.5501C39.5569 38.0568 39.7569 37.7901 40.2502 37.7501L40.7502 37.7101C41.3635 37.6634 41.7135 37.9467 41.8002 38.5601Z" fill="white"/>
<path d="M3.17996 66.11L1.99996 64.57C0.693292 62.8567 1.11663 62 3.26996 62H90.73C92.8766 62 93.2966 62.8533 91.99 64.56L90.77 66.15C89.4366 67.8833 87.6766 68.75 85.49 68.75H8.50996C6.29662 68.75 4.51996 67.87 3.17996 66.11Z" fill="black"/>
</svg>
